<svg width="29" height="29" viewBox="0 0 29 29" fill="none" xmlns="http://www.w3.org/2000/svg">
<path d="M11.2162 20.6923C9.63305 21.176 8.01491 21.5375 6.3761 21.7735C6.07194 20.9328 5.94028 20.0397 5.98893 19.1472C6.03758 18.2548 6.26556 17.3812 6.65934 16.5782C6.70953 16.4728 6.7651 16.3691 6.82246 16.2655C6.90851 16.1118 7.00173 15.9617 7.09853 15.8151C7.2611 15.5721 7.44081 15.341 7.63631 15.1235C7.71519 15.0359 7.79586 14.9448 7.8819 14.8697C8.43921 14.3252 9.10741 13.9065 9.84124 13.6419C11.0074 13.2531 12.2136 12.9959 13.4372 12.8752L14.1095 12.7966L15.1115 12.6894C15.2412 12.6763 15.3699 12.6555 15.497 12.6268C15.7389 12.5889 15.956 12.4572 16.1011 12.2605C16.1199 12.2325 16.1367 12.2033 16.1513 12.1729L16.1728 12.1246C16.1996 12.0539 16.2201 11.981 16.2337 11.9066C16.2597 11.7435 16.2699 11.5784 16.2642 11.4134C16.2642 11.3329 16.2642 11.2525 16.2642 11.1757C16.2534 10.9433 16.2337 10.7253 16.2068 10.5216C16.1805 10.3308 16.1434 10.1416 16.0957 9.95503C15.8035 8.85057 15.1313 8.32514 13.9445 8.30191C13.5148 8.30063 13.086 8.34255 12.6646 8.42701C12.1448 8.52531 11.6285 8.65755 11.1176 8.80767C10.863 8.88273 10.6085 8.96316 10.3557 9.04716C10.103 9.13115 9.85199 9.21693 9.60102 9.3045C9.45623 9.35919 9.30503 9.39522 9.15108 9.41173C9.11883 9.41347 9.08652 9.41347 9.05428 9.41173C8.99382 9.41103 8.93365 9.40323 8.87501 9.3885C8.734 9.3498 8.61138 9.26239 8.52904 9.14188C8.44753 9.01599 8.38699 8.87778 8.34978 8.73262C8.296 8.5539 8.22788 8.37518 8.17052 8.19647C8.149 8.1357 8.12749 8.07494 8.10777 8.01775C8.00201 7.68892 7.91238 7.40654 7.84784 7.16349C7.82155 7.06698 7.79825 6.97584 7.77793 6.89006C7.77793 6.84716 7.7618 6.80606 7.75283 6.76495C7.71747 6.59638 7.7084 6.42337 7.72594 6.25204C7.73374 6.19708 7.74756 6.14314 7.76718 6.0912C7.78586 6.04022 7.81053 5.99163 7.84067 5.94644C7.89106 5.87821 7.9515 5.81796 8.01993 5.76772C8.30855 5.53718 8.82303 5.3674 9.63329 5.13149C10.2168 4.963 10.8086 4.82402 11.4062 4.71508L11.6285 4.67576C11.8526 4.63823 12.0748 4.60607 12.2989 4.57747L12.523 4.55245C13.0462 4.49498 13.5723 4.46693 14.0987 4.46845C14.3228 4.46845 14.5504 4.46846 14.7763 4.48812C15.4637 4.52667 16.1467 4.62232 16.8181 4.77406C17.4384 4.90873 18.032 5.14485 18.5749 5.47284C18.6896 5.54254 18.799 5.61581 18.9065 5.69445C19.2756 5.96205 19.6024 6.28311 19.8763 6.647C20.4415 7.4164 20.7591 8.33874 20.787 9.292C20.8246 10.1212 20.8425 10.954 20.8515 11.7851C20.8601 12.5764 20.6289 13.3519 20.1882 14.0101C19.3 15.3114 18.2304 16.4801 17.0117 17.4807C15.295 18.8983 13.3301 19.9871 11.2162 20.6923Z" fill="#B1060F"/>
<path d="M21.8212 23.649C21.8212 23.6776 21.8212 23.7062 21.8123 23.7331C21.8038 23.7864 21.7894 23.8386 21.7692 23.8887C21.7282 23.9884 21.6629 24.0764 21.5791 24.1445C21.5316 24.1836 21.4805 24.2183 21.4267 24.2483C21.3642 24.2839 21.2988 24.3144 21.2313 24.3395L20.7202 24.5434C20.2109 24.7528 19.7035 24.9621 19.1888 25.157C17.9569 25.6222 17.8278 25.5578 17.3274 24.3073C17.3153 24.2759 17.3009 24.2454 17.2844 24.2161C17.1923 24.0524 17.0458 23.9258 16.8702 23.8583C16.7558 23.8151 16.6336 23.7968 16.5115 23.8046C16.4506 23.8096 16.3904 23.8216 16.3322 23.8404C16.3017 23.8499 16.2717 23.8612 16.2426 23.8744C16.1826 23.9018 16.1261 23.936 16.074 23.9764L15.9772 24.0533C15.8821 24.1284 15.7871 24.2035 15.6902 24.2751C15.5344 24.3961 15.3716 24.5078 15.2025 24.6096C15.034 24.7119 14.8598 24.8045 14.6807 24.8869C14.4113 25.0123 14.1325 25.1164 13.8468 25.1982C13.3681 25.3378 12.8746 25.4206 12.3764 25.4451L12.0751 25.4558C11.6745 25.4588 11.2744 25.4277 10.8791 25.3628C10.7804 25.3467 10.6818 25.327 10.585 25.3073C10.3895 25.2662 10.1977 25.2161 10.0076 25.1588C9.81749 25.1016 9.63279 25.0336 9.44989 24.9585C9.2664 24.8855 9.08684 24.8031 8.91192 24.7116C8.22485 24.3571 7.62571 23.8541 7.15817 23.2393C6.94695 22.9546 6.76152 22.6516 6.60406 22.3341C8.93524 23.191 11.9622 24.123 14.4942 23.2751C16.646 22.5595 18.9933 20.9835 20.9946 19.0621C21.0215 19.3663 21.0591 19.6704 21.1057 19.9745C21.1936 20.5541 21.3084 21.1319 21.4339 21.708C21.5397 22.1856 21.6527 22.6633 21.7638 23.1391C21.7909 23.2473 21.81 23.3573 21.8212 23.4683C21.8252 23.5285 21.8252 23.5888 21.8212 23.649Z" fill="#B1060F"/>
<path d="M20.9143 18.0232C20.9 17.6964 20.8731 17.43 20.8839 17.1636C20.8839 17.0731 20.9806 16.986 21.0469 16.8955C21.6221 16.185 22.2009 15.4657 22.7582 14.7287C22.7241 14.7553 22.6865 14.7802 22.6542 14.8104C21.9375 15.4871 21.2207 16.1619 20.504 16.8439C20.4625 16.891 20.4075 16.9243 20.3463 16.9396C20.2852 16.9548 20.2208 16.9512 20.1618 16.9292C19.6887 16.7995 19.2085 16.6859 18.6978 16.558L23.5627 13.7838C23.2975 15.0857 23.0413 16.3449 22.7797 17.6183C22.3908 17.5153 22.0253 17.4229 21.6615 17.3164C21.6104 17.2923 21.5517 17.289 21.4981 17.3073C21.4445 17.3256 21.4003 17.3639 21.3748 17.4141C21.2387 17.6076 21.0917 17.7888 20.9143 18.0232Z" fill="#B1060F"/>
<path d="M7.08844 22.0622C7.08844 22.0622 14.4443 23.643 20.1541 17.6715C20.147 17.6715 15.9685 24.965 7.08844 22.0622Z" fill="#B1060F"/>
</svg>
