<svg width="21" height="20" viewBox="0 0 21 20" fill="none" xmlns="http://www.w3.org/2000/svg">
<path d="M10.635 2.49992H10.3683L8.17665 6.87492H12.8267L10.635 2.49992ZM14.2183 6.87492H18.5183L16.7933 3.42492C16.6553 3.14724 16.4426 2.91356 16.1791 2.75015C15.9156 2.58674 15.6117 2.50008 15.3017 2.49992H12.0267L14.2183 6.87492ZM18.3183 8.12492H11.1267V16.7499L18.3183 8.12492ZM9.87665 16.7499V8.12492H2.68499L9.87665 16.7499ZM6.78499 6.87492L8.96832 2.49992H5.70165C5.39158 2.50008 5.08771 2.58674 4.82419 2.75015C4.56067 2.91356 4.34797 3.14724 4.20999 3.42492L2.48499 6.87492H6.78499Z" fill="#B1060F"/>
</svg>
