<svg width="53" height="41" viewBox="0 0 53 41" fill="none" xmlns="http://www.w3.org/2000/svg">
<path d="M51.6941 12.0288C51.2993 11.6846 50.8112 11.4655 50.2916 11.3993C49.772 11.3331 49.2445 11.4228 48.776 11.657L37.7926 17.1257L28.6226 1.89414C28.3868 1.50329 28.0541 1.17998 27.6567 0.955551C27.2592 0.731121 26.8105 0.61319 26.3541 0.61319C25.8977 0.61319 25.449 0.731121 25.0516 0.955551C24.6541 1.17998 24.3214 1.50329 24.0857 1.89414L14.9157 17.1323L3.93662 11.6635C3.46924 11.4314 2.94371 11.3425 2.42599 11.408C1.90827 11.4734 1.42142 11.6903 1.02653 12.0315C0.631636 12.3726 0.3463 12.8228 0.206327 13.3255C0.0663537 13.8283 0.0779783 14.3611 0.239742 14.8573L8.33349 39.6548C8.41487 39.9039 8.55116 40.1315 8.7323 40.3209C8.91345 40.5103 9.13481 40.6566 9.38006 40.749C9.62531 40.8414 9.88818 40.8775 10.1493 40.8547C10.4103 40.8319 10.663 40.7508 10.8885 40.6173C10.9432 40.5844 16.5366 37.3623 26.3541 37.3623C36.1716 37.3623 41.7651 40.5844 41.8154 40.6151C42.041 40.7499 42.294 40.8321 42.5558 40.8557C42.8175 40.8793 43.0812 40.8437 43.3273 40.7514C43.5734 40.6592 43.7955 40.5127 43.9772 40.3228C44.1589 40.133 44.2955 39.9046 44.3769 39.6548L52.4707 14.8638C52.6371 14.3676 52.6521 13.833 52.5138 13.3282C52.3755 12.8233 52.0902 12.371 51.6941 12.0288ZM36.8191 29.6623C36.7477 30.0671 36.536 30.4339 36.2212 30.6983C35.9065 30.9626 35.5086 31.1078 35.0976 31.1082C34.9949 31.1081 34.8925 31.0993 34.7913 31.082C29.2016 30.1224 23.4892 30.1224 17.8994 31.082C17.6731 31.1219 17.441 31.1168 17.2166 31.0671C16.9922 31.0174 16.7798 30.9239 16.5915 30.7921C16.2112 30.5258 15.9523 30.1194 15.8716 29.6623C15.791 29.2051 15.8952 28.7346 16.1615 28.3543C16.4277 27.974 16.8341 27.7151 17.2913 27.6345C23.2834 26.6049 29.4073 26.6049 35.3994 27.6345C35.6266 27.6733 35.8439 27.7567 36.0387 27.8798C36.2336 28.0028 36.4022 28.1632 36.535 28.3516C36.6677 28.54 36.7619 28.7528 36.8121 28.9777C36.8624 29.2026 36.8678 29.4353 36.8279 29.6623H36.8191Z" fill="white"/>
</svg>
