<svg width="21" height="20" viewBox="0 0 21 20" fill="none" xmlns="http://www.w3.org/2000/svg">
<path d="M19.5498 5.95201C19.4088 5.82908 19.2345 5.75082 19.0489 5.72718C18.8633 5.70353 18.6749 5.73556 18.5076 5.8192L14.585 7.77233L11.31 2.33248C11.2258 2.19289 11.107 2.07743 10.965 1.99727C10.8231 1.91712 10.6628 1.875 10.4998 1.875C10.3368 1.875 10.1766 1.91712 10.0346 1.99727C9.89267 2.07743 9.77384 2.19289 9.68966 2.33248L6.41466 7.77467L2.49356 5.82155C2.32664 5.73865 2.13896 5.7069 1.95405 5.73028C1.76915 5.75366 1.59528 5.83113 1.45425 5.95297C1.31321 6.0748 1.21131 6.23558 1.16132 6.41513C1.11133 6.59467 1.11548 6.78498 1.17325 6.96217L4.06388 15.8184C4.09294 15.9074 4.14161 15.9887 4.20631 16.0563C4.271 16.124 4.35006 16.1762 4.43765 16.2092C4.52524 16.2422 4.61912 16.2551 4.71237 16.247C4.80561 16.2388 4.89583 16.2099 4.97638 16.1622C4.99591 16.1505 6.99356 14.9997 10.4998 14.9997C14.0061 14.9997 16.0037 16.1505 16.0217 16.1614C16.1023 16.2095 16.1926 16.2389 16.2861 16.2473C16.3796 16.2558 16.4738 16.243 16.5617 16.2101C16.6495 16.1771 16.7289 16.1248 16.7938 16.057C16.8587 15.9892 16.9075 15.9077 16.9365 15.8184L19.8272 6.96451C19.8866 6.78727 19.892 6.59636 19.8426 6.41606C19.7932 6.23576 19.6913 6.07423 19.5498 5.95201ZM14.2373 12.2497C14.2118 12.3943 14.1362 12.5252 14.0238 12.6197C13.9114 12.7141 13.7693 12.7659 13.6225 12.7661C13.5858 12.766 13.5492 12.7629 13.5131 12.7567C11.5168 12.414 9.47662 12.414 7.48028 12.7567C7.39944 12.771 7.31658 12.7692 7.23643 12.7514C7.15628 12.7336 7.08041 12.7003 7.01316 12.6532C6.87735 12.5581 6.78486 12.4129 6.75606 12.2497C6.72726 12.0864 6.7645 11.9184 6.85959 11.7826C6.95468 11.6467 7.09982 11.5543 7.26309 11.5255C9.40314 11.1577 11.5902 11.1577 13.7303 11.5255C13.8114 11.5393 13.889 11.5691 13.9586 11.6131C14.0282 11.657 14.0884 11.7143 14.1358 11.7816C14.1832 11.8489 14.2169 11.9249 14.2348 12.0052C14.2528 12.0855 14.2547 12.1686 14.2404 12.2497H14.2373Z" fill="#B1060F"/>
</svg>
